<mxfile host="app.diagrams.net" agent="Mozilla/5.0 (X11; Linux x86_64; rv:140.0) Gecko/20100101 Firefox/140.0" version="27.2.0">
  <diagram name="Page-1" id="SLKjiwA-GTwT4v715qyP">
    <mxGraphModel dx="983" dy="524" grid="1" gridSize="10" guides="1" tooltips="1" connect="1" arrows="1" fold="1" page="1" pageScale="1" pageWidth="827" pageHeight="1169" math="0" shadow="0">
      <root>
        <mxCell id="0" />
        <mxCell id="1" parent="0" />
        <mxCell id="5d9VrlRy6kw5Ke1HKDMR-2" value="Client" style="rounded=1;whiteSpace=wrap;html=1;fillColor=#d5e8d4;strokeColor=#82b366;" parent="1" vertex="1">
          <mxGeometry x="50" y="200" width="120" height="60" as="geometry" />
        </mxCell>
        <mxCell id="5d9VrlRy6kw5Ke1HKDMR-3" value="Internet and/or LAN" style="ellipse;shape=cloud;whiteSpace=wrap;html=1;fillColor=#dae8fc;strokeColor=#6c8ebf;" parent="1" vertex="1">
          <mxGeometry x="260" y="100" width="330" height="290" as="geometry" />
        </mxCell>
        <mxCell id="5d9VrlRy6kw5Ke1HKDMR-5" value="Server (OVH, Self-hosted)" style="rounded=1;whiteSpace=wrap;html=1;fillColor=#e1d5e7;strokeColor=#9673a6;" parent="1" vertex="1">
          <mxGeometry x="620" y="215" width="120" height="60" as="geometry" />
        </mxCell>
        <mxCell id="5d9VrlRy6kw5Ke1HKDMR-8" value="" style="shape=flexArrow;endArrow=classic;html=1;rounded=0;exitX=1;exitY=0.75;exitDx=0;exitDy=0;entryX=0.1;entryY=0.638;entryDx=0;entryDy=0;entryPerimeter=0;fillColor=#f5f5f5;strokeColor=#666666;startArrow=block;dashed=1;" parent="1" source="5d9VrlRy6kw5Ke1HKDMR-2" target="5d9VrlRy6kw5Ke1HKDMR-3" edge="1">
          <mxGeometry width="50" height="50" relative="1" as="geometry">
            <mxPoint x="330" y="390" as="sourcePoint" />
            <mxPoint x="380" y="340" as="targetPoint" />
          </mxGeometry>
        </mxCell>
        <mxCell id="5d9VrlRy6kw5Ke1HKDMR-17" value="WiFi/4G/5G" style="edgeLabel;html=1;align=center;verticalAlign=middle;resizable=0;points=[];" parent="5d9VrlRy6kw5Ke1HKDMR-8" vertex="1" connectable="0">
          <mxGeometry x="-0.6776" y="-3" relative="1" as="geometry">
            <mxPoint x="41" y="6" as="offset" />
          </mxGeometry>
        </mxCell>
        <mxCell id="5d9VrlRy6kw5Ke1HKDMR-1" value="&lt;div&gt;The Things Network&lt;/div&gt;" style="rounded=0;whiteSpace=wrap;html=1;fillColor=#f8cecc;strokeColor=#b85450;" parent="1" vertex="1">
          <mxGeometry x="380" y="80" width="120" height="60" as="geometry" />
        </mxCell>
        <mxCell id="5d9VrlRy6kw5Ke1HKDMR-9" value="" style="shape=flexArrow;endArrow=classic;html=1;rounded=0;exitX=0.875;exitY=0.5;exitDx=0;exitDy=0;exitPerimeter=0;entryX=0;entryY=0.5;entryDx=0;entryDy=0;fillColor=#f5f5f5;strokeColor=#666666;startArrow=block;" parent="1" source="5d9VrlRy6kw5Ke1HKDMR-3" target="5d9VrlRy6kw5Ke1HKDMR-5" edge="1">
          <mxGeometry width="50" height="50" relative="1" as="geometry">
            <mxPoint x="330" y="390" as="sourcePoint" />
            <mxPoint x="380" y="340" as="targetPoint" />
          </mxGeometry>
        </mxCell>
        <mxCell id="5d9VrlRy6kw5Ke1HKDMR-10" value="" style="shape=filledEdge;endArrow=classic;html=1;rounded=0;entryX=0;entryY=0;entryDx=0;entryDy=0;exitX=1;exitY=1;exitDx=0;exitDy=0;fillColor=#f5f5f5;strokeColor=#000000;" parent="1" source="5d9VrlRy6kw5Ke1HKDMR-1" target="5d9VrlRy6kw5Ke1HKDMR-5" edge="1">
          <mxGeometry width="50" height="50" relative="1" as="geometry">
            <mxPoint x="330" y="390" as="sourcePoint" />
            <mxPoint x="380" y="340" as="targetPoint" />
          </mxGeometry>
        </mxCell>
        <mxCell id="CxQ-7Na6IZVcNqFGBhFb-2" value="MQTT Api" style="edgeLabel;html=1;align=center;verticalAlign=middle;resizable=0;points=[];" vertex="1" connectable="0" parent="5d9VrlRy6kw5Ke1HKDMR-10">
          <mxGeometry x="-0.1714" y="-1" relative="1" as="geometry">
            <mxPoint as="offset" />
          </mxGeometry>
        </mxCell>
        <mxCell id="5d9VrlRy6kw5Ke1HKDMR-12" value="" style="curved=1;endArrow=classic;html=1;rounded=0;exitX=1;exitY=0.25;exitDx=0;exitDy=0;entryX=0;entryY=0.5;entryDx=0;entryDy=0;" parent="1" source="5d9VrlRy6kw5Ke1HKDMR-2" target="5d9VrlRy6kw5Ke1HKDMR-1" edge="1">
          <mxGeometry width="50" height="50" relative="1" as="geometry">
            <mxPoint x="330" y="390" as="sourcePoint" />
            <mxPoint x="380" y="340" as="targetPoint" />
            <Array as="points">
              <mxPoint x="360" y="220" />
              <mxPoint x="310" y="130" />
            </Array>
          </mxGeometry>
        </mxCell>
        <mxCell id="5d9VrlRy6kw5Ke1HKDMR-16" value="LoRa" style="edgeLabel;html=1;align=center;verticalAlign=middle;resizable=0;points=[];" parent="5d9VrlRy6kw5Ke1HKDMR-12" vertex="1" connectable="0">
          <mxGeometry x="-0.9492" y="1" relative="1" as="geometry">
            <mxPoint as="offset" />
          </mxGeometry>
        </mxCell>
        <mxCell id="5d9VrlRy6kw5Ke1HKDMR-14" value="&lt;div&gt;Gateway&lt;/div&gt;&lt;div&gt;LoRa&lt;/div&gt;" style="ellipse;whiteSpace=wrap;html=1;fillColor=#fff2cc;strokeColor=#d6b656;" parent="1" vertex="1">
          <mxGeometry x="240" y="190" width="60" height="60" as="geometry" />
        </mxCell>
        <mxCell id="CxQ-7Na6IZVcNqFGBhFb-1" value="Phone" style="rounded=1;whiteSpace=wrap;html=1;" vertex="1" parent="1">
          <mxGeometry x="70" y="320" width="80" height="40" as="geometry" />
        </mxCell>
        <mxCell id="CxQ-7Na6IZVcNqFGBhFb-3" value="" style="shape=flexArrow;endArrow=classic;html=1;rounded=0;entryX=0.5;entryY=0;entryDx=0;entryDy=0;fillColor=#f5f5f5;strokeColor=#666666;startArrow=block;exitX=0.5;exitY=1;exitDx=0;exitDy=0;" edge="1" parent="1" source="5d9VrlRy6kw5Ke1HKDMR-2" target="CxQ-7Na6IZVcNqFGBhFb-1">
          <mxGeometry width="50" height="50" relative="1" as="geometry">
            <mxPoint x="120" y="270" as="sourcePoint" />
            <mxPoint x="233" y="330" as="targetPoint" />
          </mxGeometry>
        </mxCell>
        <mxCell id="CxQ-7Na6IZVcNqFGBhFb-4" value="WiFi" style="edgeLabel;html=1;align=center;verticalAlign=middle;resizable=0;points=[];" vertex="1" connectable="0" parent="CxQ-7Na6IZVcNqFGBhFb-3">
          <mxGeometry x="-0.6776" y="-3" relative="1" as="geometry">
            <mxPoint x="3" y="20" as="offset" />
          </mxGeometry>
        </mxCell>
        <mxCell id="CxQ-7Na6IZVcNqFGBhFb-5" value="" style="shape=flexArrow;endArrow=classic;html=1;rounded=0;exitX=1;exitY=0.5;exitDx=0;exitDy=0;entryX=0.102;entryY=0.709;entryDx=0;entryDy=0;entryPerimeter=0;fillColor=#f5f5f5;strokeColor=#666666;startArrow=block;dashed=1;" edge="1" parent="1" source="CxQ-7Na6IZVcNqFGBhFb-1" target="5d9VrlRy6kw5Ke1HKDMR-3">
          <mxGeometry width="50" height="50" relative="1" as="geometry">
            <mxPoint x="200" y="250" as="sourcePoint" />
            <mxPoint x="323" y="290" as="targetPoint" />
          </mxGeometry>
        </mxCell>
        <mxCell id="CxQ-7Na6IZVcNqFGBhFb-6" value="WiFi/4G/5G" style="edgeLabel;html=1;align=center;verticalAlign=middle;resizable=0;points=[];" vertex="1" connectable="0" parent="CxQ-7Na6IZVcNqFGBhFb-5">
          <mxGeometry x="-0.6776" y="-3" relative="1" as="geometry">
            <mxPoint x="46" y="-7" as="offset" />
          </mxGeometry>
        </mxCell>
        <mxCell id="CxQ-7Na6IZVcNqFGBhFb-7" value="&lt;font style=&quot;font-size: 10px;&quot;&gt;NOTE: The client directly connect to the Internet, and the phone can act as a gateway if desired&lt;/font&gt;" style="text;html=1;align=center;verticalAlign=middle;whiteSpace=wrap;rounded=0;" vertex="1" parent="1">
          <mxGeometry x="50" y="110" width="130" height="90" as="geometry" />
        </mxCell>
      </root>
    </mxGraphModel>
  </diagram>
</mxfile>
